<svg width="24" height="24" viewBox="0 0 24 24" fill="none" xmlns="http://www.w3.org/2000/svg">
<path d="M22 7V6H21V5H17V3H16V2H8V3H7V5H3V6H2V7H1V20H2V21H3V22H21V21H22V20H23V7H22ZM21 19H20V20H4V19H3V8H4V7H8V6H9V4H15V6H16V7H20V8H21V19Z" fill="#69529F"/>
<path d="M16 11V15H15V16H14V17H10V16H9V15H8V11H9V10H10V9H14V10H15V11H16Z" fill="#69529F"/>
<path d="M15 11.5V14.5H14.25V15.25H13.5V16H10.5V15.25H9.75V14.5H9V11.5H9.75V10.75H10.5V10H13.5V10.75H14.25V11.5H15Z" fill="#FFBC00"/>
<path d="M7 8H5V10H7V8Z" fill="#69529F"/>
</svg>
